<svg width="12" height="21" viewBox="0 0 12 21" fill="none" xmlns="http://www.w3.org/2000/svg">
<g clip-path="url(#clip0_458_964)">
<path d="M3.7032 21C3.43146 20.8961 3.34474 20.7019 3.34763 20.4312C3.35341 17.6609 3.35052 14.8934 3.35052 12.1231C3.35052 12.0411 3.35052 11.9617 3.35052 11.8524C3.25512 11.8524 3.17996 11.8524 3.1019 11.8524C2.26355 11.8524 1.4252 11.8524 0.586847 11.8524C0.161889 11.8524 0.00289154 11.7074 0.00289154 11.3163C0.00289154 10.2361 0.00289154 9.15591 0.00289154 8.07569C0.00289154 7.69557 0.170562 7.54516 0.575284 7.54516C1.41364 7.54516 2.25199 7.54516 3.09034 7.54516C3.16839 7.54516 3.24645 7.54516 3.35052 7.54516C3.35052 7.45217 3.35052 7.38107 3.35052 7.30723C3.35341 6.47314 3.33028 5.63905 3.36497 4.80496C3.41412 3.59894 3.78415 2.49411 4.64274 1.56977C5.43194 0.713797 6.44375 0.188729 7.62322 0.0930129C8.91544 -0.0136416 10.2192 0.0164405 11.5172 3.2079e-05C11.8179 -0.00270265 11.9913 0.169585 11.9942 0.451263C12 1.50413 12.0029 2.55701 11.9942 3.60988C11.9942 3.90796 11.8092 4.05564 11.4739 4.05837C10.7165 4.06931 9.95616 4.06384 9.19875 4.09119C8.79981 4.10486 8.41243 4.21699 8.21874 4.58891C8.12334 4.77214 8.05396 4.99092 8.04818 5.19602C8.02795 5.96722 8.03951 6.74114 8.03951 7.54516H8.26789C9.26524 7.54516 10.2626 7.54516 11.2599 7.54516C11.708 7.54516 11.8612 7.6901 11.8612 8.11125C11.8612 9.17779 11.8612 10.2443 11.8612 11.3109C11.8612 11.7102 11.7051 11.8551 11.286 11.8551C10.2886 11.8551 9.29126 11.8551 8.29391 11.8551C8.21585 11.8551 8.1378 11.8551 8.03373 11.8551V12.1122C8.03373 14.8742 8.03373 17.6363 8.03373 20.3984C8.03373 20.6664 7.96435 20.8797 7.68971 21H3.70031H3.7032Z" fill="#E0C505"/>
</g>
<defs>
<clipPath id="clip0_458_964">
<rect width="12" height="21" fill="white"/>
</clipPath>
</defs>
</svg>
