<svg width="1282" height="955" viewBox="0 0 1282 955" fill="none" xmlns="http://www.w3.org/2000/svg">
<path d="M0.511273 297.174C-0.733671 302.861 7.25473 311.546 20.9491 310.512C34.6435 309.478 49.0641 308.755 65.3521 295.727C81.4326 282.802 92.9483 282.182 103.634 280.32C119.403 277.529 119.403 252.61 99.0693 253.334C67.6345 254.368 48.3379 282.078 40.3495 285.49C32.3611 289.006 21.3641 292.831 14.3094 292.521C7.25473 292.211 1.65249 292.521 0.61504 297.071" fill="#E0BF05"/>
<path d="M26.9667 241.137C35.2663 259.542 57.2603 253.131 70.3322 246.721C87.4502 238.449 95.0235 238.035 108.614 246.721C120.545 254.475 133.617 233.072 140.671 245.377C145.755 254.372 132.579 258.611 128.015 267.814C123.865 276.292 121.064 281.462 118.47 290.561C116.084 299.66 104.776 306.277 99.5883 308.138C94.1936 309.896 84.0266 311.24 77.3869 310.206C70.6434 309.172 69.2947 319.409 72.822 325.613C76.2456 331.92 77.0756 357.562 78.7355 368.729C80.4992 379.896 92.1187 391.166 112.142 377.104C132.164 363.042 131.127 342.053 135.38 328.818C139.53 315.48 145.548 316.927 150.424 320.029C155.3 323.131 154.366 334.815 148.66 347.74C143.058 360.664 134.343 374.002 128.326 382.067C122.309 390.132 114.943 402.437 123.761 409.778C132.579 417.119 145.548 410.088 152.187 408.434C158.931 406.676 168.786 410.812 175.426 404.194C182.066 397.473 198.25 379.276 205.616 357.872C213.086 336.469 216.924 320.339 221.489 321.063C225.95 321.787 226.365 331.506 220.659 347.74C215.057 363.869 208.106 378.552 205.616 385.273C203.126 391.89 205.305 395.716 212.671 395.716C220.037 395.716 240.474 394.682 248.152 371.211C255.829 347.74 259.771 326.646 265.684 328.818C271.702 330.886 266.826 349.084 265.062 354.357C263.298 359.63 255.518 380.31 261.535 383.825C267.552 387.341 280.935 382.481 297.742 363.146C314.549 343.914 311.436 323.545 320.877 323.545C330.318 323.545 318.076 358.906 310.295 368.419C302.618 377.931 289.857 398.611 263.195 398.611C263.195 398.611 254.065 396.129 251.575 397.577C249.085 398.921 238.607 410.501 219.933 411.225C207.38 411.742 202.4 407.4 202.4 407.4C202.4 407.4 201.051 405.228 197.42 408.434C193.893 411.535 182.377 424.15 168.994 423.116C155.611 422.082 139.427 419.6 138.389 428.389C137.352 437.178 133.824 454.652 129.986 464.475C126.147 474.297 120.13 500.56 119.819 523.308C119.507 545.435 102.286 583.795 80.4992 596.202C52.3842 612.332 36.9262 620.708 21.3644 626.291C6.0101 631.874 0.719079 637.148 0.200353 643.868C-1.14834 667.029 4.7651 666.719 4.45387 685.537C4.14263 708.285 5.28388 731.135 19.497 741.268C28.0041 747.265 34.0213 751.298 41.3872 751.711C46.9895 752.125 48.2344 765.36 52.6954 768.875C56.8452 771.977 61.7213 774.872 64.8337 778.284C68.0498 781.8 74.6895 789.451 82.8854 786.349C90.8737 783.144 87.7614 779.319 92.0149 786.66C93.4673 789.141 104.049 788.831 107.784 788.004C111.727 787.383 120.441 786.97 123.968 791.209C127.392 795.448 134.447 789.865 136.21 784.902C137.974 779.939 140.153 779.629 143.991 782.11C147.83 784.592 157.997 789.451 172.417 789.141C186.942 788.831 183 783.144 176.36 768.462C169.616 753.779 160.383 728.344 153.847 723.381C141.916 714.489 141.916 721.52 135.588 709.525C129.26 697.635 120.026 710.973 113.075 709.215C106.021 707.458 103.946 706.01 94.0899 696.601C84.3378 687.192 85.9977 693.396 85.3752 690.707C84.7527 687.812 94.9198 681.195 106.021 680.161C117.329 679.127 125.732 681.195 132.787 684.71C139.841 688.226 171.484 685.744 179.887 680.471C188.291 675.198 208.002 675.611 221.385 685.02C234.665 694.43 236.117 696.187 240.993 707.768C245.973 719.348 256.451 723.588 263.091 735.168C269.834 746.748 294.111 796.793 296.497 801.032C298.987 805.168 303.24 816.024 309.258 822.021C315.171 828.018 317.972 842.391 318.698 853.557C319.425 864.828 323.574 867.206 314.134 870.721C304.693 874.237 268.797 885.404 261.742 906.497C256.659 921.8 253.961 923.35 254.376 939.48C254.688 955.61 279.586 946.511 287.782 944.03C295.874 941.652 315.897 938.757 334.571 942.996C353.246 947.132 374.306 945.064 391.528 939.067C408.749 933.07 438.939 926.866 439.665 918.801C440.288 910.736 432.922 917.353 432.299 902.671C431.573 887.989 430.121 880.234 434.063 870.101C437.902 859.968 444.541 847.974 442.466 822.435C440.392 796.793 442.467 785.212 425.971 766.29C418.501 757.709 412.588 726.276 418.605 716.867C431.366 697.325 444.023 700.84 455.227 702.184C466.432 703.528 478.777 707.768 497.348 700.84C515.918 693.809 608.77 659.481 628.067 650.383C647.363 641.284 701.103 618.846 730.36 600.649C759.616 582.451 816.883 558.98 829.851 559.91C842.923 560.944 852.053 562.702 870.312 588.758C888.571 614.71 937.435 665.789 945.527 671.062C953.619 676.335 980.074 696.084 1029.87 704.666C1064.42 710.663 1065.98 718.521 1073.13 722.967C1095.34 736.926 1120.65 747.059 1123.76 750.678C1126.98 754.193 1139.22 780.766 1145.55 787.073C1151.77 793.38 1162.67 833.395 1159.97 839.289C1155.82 848.388 1131.85 841.046 1108.3 851.49C1074.07 866.792 1083.92 877.029 1079.46 884.473C1072.82 895.64 1069.61 898.639 1054.15 910.736C1044.29 918.387 1042.01 949.717 1061.83 951.681C1082.57 953.853 1110.69 957.678 1153.23 950.337C1195.76 942.996 1164.74 943.306 1198.87 928.934C1221.28 919.525 1226.26 933.483 1245.66 932.449C1264.96 931.415 1271.39 924.281 1267.76 895.64C1263.51 861.726 1240.06 843.321 1245.66 834.739C1251.58 825.227 1271.6 830.086 1270.56 820.677C1269.52 811.165 1258.63 798.24 1249.09 788.417C1239.54 778.595 1226.57 769.496 1247.63 766.084C1268.8 762.568 1279.28 761.534 1247.32 739.717C1218.48 720.072 1192.44 728.24 1212.15 698.048C1224.81 678.817 1202.3 669.614 1189.02 667.65C1175.63 665.478 1162.98 665.478 1144.3 643.145C1125.63 620.708 1108.82 597.236 1093.05 558.256C1077.18 519.379 1065.56 489.6 1040.97 457.03C1040.97 457.03 1032.78 448.965 1041.49 449.379C1047.72 449.689 1097.31 451.033 1128.22 440.176C1159.14 429.32 1187.36 418.463 1185.18 411.432C1184.14 407.917 1168.79 405.538 1179.16 401.609C1189.74 397.784 1247.63 376.07 1249.81 367.592C1251.89 359.527 1234.04 353.53 1241.72 350.014C1249.4 346.499 1280.42 333.161 1281.77 320.236C1283.22 307.311 1272.95 314.963 1264.13 313.929C1255.31 312.895 1250.43 318.892 1257.7 289.113C1262.78 269.468 1264.13 249.823 1254.9 249.202C1245.87 248.478 1238.71 275.568 1229.69 272.984C1220.87 270.605 1214.85 255.096 1203.96 239.379C1193.17 223.663 1164.64 203.604 1122.41 203.604C1099.17 203.604 1098.86 208.671 1083.4 207.74C1074.59 207.12 1069.3 206.809 1062.97 204.328C1062.97 204.328 1052.8 216.219 1023.96 221.492C995.118 226.765 970.115 232.659 902.992 232.659C835.869 232.659 759.927 221.802 720.919 215.495C681.91 209.188 629.104 195.849 575.053 195.849C521.002 195.849 475.561 210.222 450.974 235.14C426.386 260.059 402.006 322.717 471.308 360.251C502.639 377.208 546.212 365.524 558.454 365.11C570.696 364.8 611.468 366.868 624.228 371.417C636.885 375.967 659.398 378.862 681.184 369.66C702.971 360.561 747.996 340.502 775.489 343.087C794.059 344.844 806.405 347.946 806.405 347.946C806.405 347.946 787.834 322.407 763.247 305.967C738.555 289.527 715.005 269.882 674.96 269.882C634.914 269.882 601.093 293.353 583.145 304.933C565.197 316.514 535.319 327.06 512.08 327.06C488.841 327.06 465.705 319.409 465.705 295.524C465.705 271.639 486.143 237.312 574.742 237.312C653.796 237.312 692.493 257.577 751.939 266.366C811.385 275.155 840.537 278.98 890.75 278.98C984.224 278.98 1050 259.335 1099.17 259.335C1134.34 259.335 1149.18 266.676 1149.18 288.079C1149.18 318.582 1085.89 364.49 1066.91 374.623C1039.52 389.305 977.585 405.538 977.585 405.538C977.585 405.538 959.325 396.026 936.916 386.617C914.3 377.104 878.197 373.692 859.108 373.692C840.018 373.692 799.765 376.174 752.561 389.408C705.564 402.747 640.101 419.187 615.825 422.289C591.549 425.494 539.261 433.559 504.817 421.979C470.27 410.501 443.919 387.341 419.02 356.528C394.017 325.716 376.485 306.381 357.81 302.555C339.136 298.729 314.964 297.282 315.586 275.258C316.416 252.407 360.508 287.045 386.237 295.214C408.334 302.141 402.732 294.49 398.893 279.704C395.055 265.022 379.286 234.21 370.467 234.52C361.649 234.83 346.502 237.622 335.298 231.418C324.093 225.111 312.266 229.04 316.001 217.459C318.802 209.084 347.955 221.699 364.865 222.216C376.485 222.526 378.663 222.526 375.032 209.601C371.505 196.676 351.897 186.44 339.551 184.786C327.309 183.028 322.329 176.411 332.6 172.792C342.767 169.276 345.568 170 342.041 160.591C338.617 151.078 323.678 119.646 309.05 125.229C304.485 126.987 299.506 133.915 288.923 136.81C278.756 139.601 267.137 144.461 268.589 132.674C269.938 120.783 311.436 116.544 307.598 89.5573C303.759 62.4673 288.612 54.5057 275.229 58.0212C267.241 60.1925 269.316 81.4923 261.223 78.287C253.131 75.0817 271.494 45.5101 266.826 33.8263C260.808 18.7303 267.137 1.98001 263.298 0.118864C259.46 -1.53549 252.716 14.4911 249.604 22.556C246.388 30.621 241.097 45.3034 233.108 55.5397C225.016 65.5692 226.78 70.222 220.037 75.4953C213.397 80.7685 207.068 86.6621 184.971 93.3829C162.873 100 156.545 108.789 151.876 117.578C147.311 126.367 127.6 140.325 118.47 151.906C118.47 151.906 91.7037 161.728 70.021 177.858C48.1307 193.988 15.4509 216.115 26.6554 241.241" fill="#E0BF05"/>
<path d="M842.094 584.824C842.094 584.824 833.172 600.23 803.189 607.261C773.207 614.292 751.213 630.215 744.573 639.004C738.141 647.793 723.513 655.858 734.302 684.809C745.092 713.76 784.515 719.343 802.359 745.089C820.1 770.732 823.42 783.45 816.469 802.061C809.414 820.776 783.063 860.067 752.25 873.508C744.677 876.817 734.925 865.133 722.268 864.616C709.092 864.099 636.159 897.393 631.802 925.31C630.35 934.202 643.94 946.713 651.306 945.369C658.153 944.128 674.338 937.408 689.796 938.338C705.254 939.269 756.504 941.337 772.273 941.647C800.907 942.061 838.774 941.13 843.027 936.891C847.281 932.651 854.336 925.207 853.713 908.353C853.298 891.499 863.569 900.805 868.756 902.356C873.943 903.7 879.027 907.009 882.347 894.808C885.563 882.711 889.298 871.44 890.335 847.142C891.269 822.844 904.341 809.299 916.583 801.854C928.721 794.41 943.245 786.448 934.842 767.32C929.136 754.395 915.13 755.532 905.793 757.497C896.871 759.461 891.165 747.157 898.635 736.507C906.105 725.754 929.551 710.348 941.793 703.317C953.931 696.286 937.539 686.567 932.975 683.258C928.202 679.949 911.396 663.199 887.43 636.522C863.465 609.846 841.99 584.617 841.99 584.617" fill="#E0BF05"/>
</svg>
