<svg width="20" height="16" viewBox="0 0 20 16" fill="none" xmlns="http://www.w3.org/2000/svg">
<g clip-path="url(#clip0_458_969)">
<path d="M6.00447 12.538C4.12162 12.3665 2.8754 11.439 2.17486 9.72404C2.80166 9.79772 3.38225 9.80783 4.00905 9.64554C2.80609 9.34791 1.91284 8.71702 1.30718 7.71579C0.927169 7.08731 0.740358 6.40441 0.751665 5.64253C1.3234 5.92522 1.90006 6.10775 2.58536 6.12412C1.68473 5.48071 1.11447 4.67838 0.882433 3.66414C0.649411 2.64653 0.810166 1.68238 1.33717 0.751458C3.5666 3.32076 6.37908 4.74002 9.79525 4.96396C9.78001 4.56665 9.74363 4.19052 9.75493 3.81584C9.80065 2.29737 10.863 0.831402 12.3236 0.299723C13.9665 -0.297454 15.4433 0.00161585 16.7348 1.16226C16.8242 1.24268 16.896 1.27495 17.0258 1.24606C17.8212 1.06835 18.5778 0.796728 19.2891 0.404229C19.3344 0.379186 19.3821 0.358959 19.4686 0.317542C19.1525 1.25713 18.5734 1.95111 17.7755 2.49146C18.5448 2.42307 19.2685 2.2078 19.9995 1.95255C19.851 2.1476 19.7232 2.36287 19.5497 2.53384C19.0802 2.99569 18.5891 3.43634 18.1132 3.89193C18.0483 3.95454 17.9839 4.05808 17.9859 4.1414C18.0464 6.63317 17.3468 8.91111 15.9565 10.9853C14.6911 12.8722 12.9961 14.2679 10.8625 15.1381C9.72495 15.6019 8.53674 15.8624 7.30969 15.9592C5.84126 16.0748 4.39692 15.9448 2.98061 15.5441C1.94479 15.2513 0.971413 14.8207 0.0580095 14.2602C0.0427697 14.251 0.0329376 14.2342 0 14.1985C1.08399 14.2968 2.13062 14.2255 3.15808 13.9423C4.18799 13.6582 5.12843 13.2016 6.00447 12.5375V12.538Z" fill="#E0C505"/>
</g>
<defs>
<clipPath id="clip0_458_969">
<rect width="20" height="16" fill="white"/>
</clipPath>
</defs>
</svg>
