<?xml version="1.0" standalone="no"?>
<!DOCTYPE svg PUBLIC "-//W3C//DTD SVG 20010904//EN"
 "http://www.w3.org/TR/2001/REC-SVG-20010904/DTD/svg10.dtd">
<svg version="1.0" xmlns="http://www.w3.org/2000/svg"
 width="800.000000pt" height="800.000000pt" viewBox="0 0 800.000000 800.000000"
 preserveAspectRatio="xMidYMid meet">
<metadata>
Created by potrace 1.14, written by Peter Selinger 2001-2017
</metadata>
<g transform="translate(0.000000,800.000000) scale(0.100000,-0.100000)"
fill="#000000" stroke="none">
<path d="M3887 6443 c-1 0 -72 -4 -157 -7 -85 -4 -177 -9 -205 -11 -56 -5
-135 -13 -210 -20 -27 -2 -67 -7 -87 -10 -21 -3 -55 -7 -75 -10 -235 -34 -407
-66 -592 -111 -57 -14 -111 -27 -120 -29 -86 -18 -453 -139 -576 -189 -142
-59 -229 -98 -370 -169 -500 -249 -919 -599 -1162 -970 -49 -75 -164 -293
-178 -337 -4 -14 -8 -27 -9 -30 -42 -108 -83 -284 -93 -399 -36 -409 74 -787
332 -1146 50 -71 62 -85 149 -184 343 -393 927 -751 1571 -966 168 -56 386
-118 492 -141 43 -9 94 -20 113 -24 70 -16 165 -34 270 -50 36 -6 77 -13 93
-15 50 -9 82 -13 142 -20 32 -4 66 -8 75 -10 9 -2 58 -6 109 -10 51 -3 102 -8
112 -10 113 -22 827 -22 1004 -1 17 2 66 7 110 11 44 3 91 8 105 10 14 2 48 6
75 10 95 11 120 15 141 19 12 2 45 7 75 11 30 4 72 10 94 15 22 5 56 12 75 15
35 6 252 53 280 60 8 3 35 9 60 15 241 58 619 191 860 302 41 19 82 38 90 41
41 18 233 123 307 170 47 28 92 57 101 62 25 15 75 49 87 58 6 4 51 37 100 74
172 127 416 356 482 454 9 13 19 26 23 29 19 17 111 149 158 230 156 265 233
532 236 815 2 213 -15 329 -74 507 -62 188 -188 426 -292 553 -9 11 -40 49
-69 85 -60 75 -226 241 -314 316 -249 209 -548 391 -930 564 -74 33 -274 110
-288 110 -7 0 -17 4 -23 9 -13 12 -333 111 -442 136 -9 3 -66 16 -126 30 -113
27 -327 69 -406 80 -25 3 -56 8 -70 10 -45 8 -84 14 -150 20 -36 4 -72 9 -82
10 -9 2 -54 6 -100 10 -45 4 -96 8 -113 11 -59 7 -602 23 -608 17z"/>
</g>
</svg>
